<svg xmlns="http://www.w3.org/2000/svg" width="120" height="60" viewBox="0 0 120 60" fill="none">
  <!-- Soft, Ghibli-style cloud -->
  <path d="M25 35C25 28.3726 30.3726 23 37 23C38.3447 23 39.6402 23.2207 40.8497 23.6274C42.7394 18.9815 47.3576 15.5 52.75 15.5C59.7916 15.5 65.5 21.2084 65.5 28.25C65.5 28.6642 65.4821 29.0746 65.447 29.4807C68.7664 30.6827 71.25 33.7994 71.25 37.5C71.25 42.3325 67.3325 46.25 62.5 46.25H32.5C27.6675 46.25 23.75 42.3325 23.75 37.5C23.75 36.5846 23.8974 35.7028 24.1707 34.876C24.3911 35.5853 24.6721 36.2682 25 36.9191V35Z"
        fill="oklch(0.88 0.055 83.6)"
        opacity="0.4"/>
  <path d="M25 35C25 28.3726 30.3726 23 37 23C38.3447 23 39.6402 23.2207 40.8497 23.6274C42.7394 18.9815 47.3576 15.5 52.75 15.5C59.7916 15.5 65.5 21.2084 65.5 28.25C65.5 28.6642 65.4821 29.0746 65.447 29.4807C68.7664 30.6827 71.25 33.7994 71.25 37.5C71.25 42.3325 67.3325 46.25 62.5 46.25H32.5C27.6675 46.25 23.75 42.3325 23.75 37.5C23.75 36.5846 23.8974 35.7028 24.1707 34.876C24.3911 35.5853 24.6721 36.2682 25 36.9191V35Z"
        stroke="oklch(0.74 0.063 80.8)"
        stroke-width="1.5"
        opacity="0.3"/>
</svg>
